<svg xmlns="http://www.w3.org/2000/svg" viewBox="0 0 320 220" fill="none">
  <rect width="320" height="220" fill="#e8f5e9"/>
  <ellipse cx="160" cy="175" rx="90" ry="30" fill="#a5d6a7" opacity=".4"/>
  <ellipse cx="120" cy="140" rx="8" ry="14" fill="#ce93d8" opacity=".8"/>
  <ellipse cx="200" cy="135" rx="8" ry="14" fill="#f48fb1" opacity=".8"/>
  <ellipse cx="160" cy="125" rx="10" ry="16" fill="#90caf9" opacity=".85"/>
  <ellipse cx="145" cy="155" rx="35" ry="8" fill="#8d6e63" opacity=".35"/>
  <path d="M130 110 Q160 85 190 110" stroke="#ffeb3b" stroke-width="4" fill="none" stroke-linecap="round"/>
  <circle cx="160" cy="95" r="6" fill="#fff176"/>
  <path fill="#e1bee7" d="M95 75l4 10 10 1-10 7 4 10-8-6-8 6 4-10-10-7 10-1z"/>
  <path fill="#c5cae9" d="M225 80l3 8 8 1-8 6 3 8-6-5-6 5 3-8-8-6 8-1z"/>
</svg>
