<svg xmlns="http://www.w3.org/2000/svg" viewBox="0 0 320 220" fill="none">
  <rect width="320" height="220" fill="#fce4ec"/>
  <path d="M110 175V100l50-38 50 38v75" fill="#ce93d8" stroke="#6a1b9a" stroke-width="3" stroke-linejoin="round"/>
  <path d="M90 100h140l-70-48z" fill="#f48fb1" stroke="#ad1457" stroke-width="3" stroke-linejoin="round"/>
  <rect x="138" y="125" width="24" height="32" rx="2" fill="#fff8e1" stroke="#ff8f00" stroke-width="2"/>
  <path d="M148 108 L160 95 L172 108" fill="none" stroke="#e91e63" stroke-width="4" stroke-linecap="round"/>
  <path fill="#fff59d" d="M200 55l3 8 8 1-8 6 3 8-6-5-6 5 3-8-8-6 8-1z"/>
  <path fill="#e1bee7" d="M85 70l2 6 6 1-6 4 2 6-5-4-5 4 2-6-6-4 6-1z"/>
</svg>
