<svg xmlns="http://www.w3.org/2000/svg" viewBox="0 0 320 220" fill="none">
  <rect width="320" height="220" fill="#0d0221"/>
  <circle cx="160" cy="110" r="55" fill="none" stroke="#7c4dff" stroke-width="3" stroke-dasharray="8 6" opacity=".8"/>
  <circle cx="160" cy="110" r="38" fill="none" stroke="#40c4ff" stroke-width="2" stroke-dasharray="6 8"/>
  <circle cx="160" cy="110" r="22" fill="#e1bee7" opacity=".4"/>
  <path fill="#ffeb3b" d="M160 65l4 12 12 1-12 8 4 12-8-6-8 6 4-12-12-8 12-1z"/>
  <path fill="#fff59d" d="M110 95l3 8 8 1-8 6 3 8-6-5-6 5 3-8-8-6 8-1z"/>
  <path fill="#ffe082" d="M215 88l2 7 7 1-7 5 2 7-6-5-6 5 2-7-7-5 7-1z"/>
  <rect x="145" y="145" width="30" height="30" rx="4" fill="#5c6bc0" stroke="#9fa8da" stroke-width="2"/>
  <path d="M152 158h20M152 168h16" stroke="#c5cae9" stroke-width="2"/>
</svg>
